Coordinates
version=1
nRows=4
nColumns=63
inDegrees=yes

Units are S.I. units (second, meters, Newtons, ...)
If the header above contains a line with 'inDegrees', this indicates whether rotational values are in degrees (yes) or radians (no).

endheader
time	pelvis_tilt	pelvis_list	pelvis_rotation	pelvis_tx	pelvis_ty	pelvis_tz	hip_flexion_r	hip_adduction_r	hip_rotation_r	knee_angle_r	knee_angle_r_beta	ankle_angle_r	subtalar_angle_r	mtp_angle_r	hip_flexion_l	hip_adduction_l	hip_rotation_l	knee_angle_l	knee_angle_l_beta	ankle_angle_l	subtalar_angle_l	mtp_angle_l	L5_S1_Flex_Ext	L5_S1_Lat_Bending	L5_S1_axial_rotation	L4_L5_Flex_Ext	L4_L5_Lat_Bending	L4_L5_axial_rotation	L3_L4_Flex_Ext	L3_L4_Lat_Bending	L3_L4_axial_rotation	L2_L3_Flex_Ext	L2_L3_Lat_Bending	L2_L3_axial_rotation	L1_L2_Flex_Ext	L1_L2_Lat_Bending	L1_L2_axial_rotation	L1_T12_Flex_Ext	L1_T12_Lat_Bending	L1_T12_axial_rotation	Abs_r3	Abs_r2	Abs_r1	Abs_t1	Abs_t2	neck_flexion	neck_bending	neck_rotation	arm_flex_r	arm_add_r	arm_rot_r	elbow_flex_r	pro_sup_r	wrist_flex_r	wrist_dev_r	arm_flex_l	arm_add_l	arm_rot_l	elbow_flex_l	pro_sup_l	wrist_flex_l	wrist_dev_l
      2.92982456	     -2.75951995	      7.28855542	     92.31986627	      0.15441352	      0.74811832	      0.76628638	     -6.97654209	      0.39106068	     -9.32836112	     10.35250167	      0.18068524	     35.37332665	      6.13968589	      0.00000000	    -10.51752541	     -0.55847977	     20.63971622	      0.76315098	      0.01331950	     28.93284344	    -14.97903296	      0.00000000	      0.04151283	      1.05484177	      0.22133255	      0.07709348	      1.40293955	      0.23516583	      0.06820143	      2.56474228	      0.23516583	      0.04744502	      2.56474228	      0.19366598	      0.03854882	      2.15103334	      0.17983269	      0.02372043	      1.63394990	      0.16599941	      0.29652201	     11.93258106	      1.23098522	      0.00000000	      0.00000000	      8.87260013	     -5.71063890	     18.64295268	     50.44751133	    -58.37682621	    -45.08555577	    122.60097342	     69.74076346	     -1.77435705	      5.81525107	     25.62054474	    -49.58758625	    -78.83991780	    120.69519210	     54.91307560	     13.88309460	      3.21522700
      2.94736842	     -2.60901832	      7.39679204	     92.13483831	      0.15445470	      0.74871233	      0.76581619	     -7.14330402	      0.49881393	     -9.64851154	     10.12087842	      0.17664265	     35.59405146	      6.89056273	      0.00000000	    -10.66558232	     -0.68219507	     20.44906848	      0.87204285	      0.01522002	     28.83178000	    -15.13921900	      0.00000000	      0.04635055	      1.05747465	      0.19290492	      0.08607761	      1.40644129	      0.20496147	      0.07614932	      2.57114387	      0.20496147	      0.05297404	      2.57114387	      0.16879180	      0.04304112	      2.15640231	      0.15673524	      0.02648470	      1.63802823	      0.14467869	      0.33107734	     11.96236474	      1.07287927	      0.00000000	      0.00000000	      9.30379834	     -5.60479498	     18.12979034	     50.50035091	    -58.80323216	    -43.33692264	    122.30486383	     74.46947666	     -5.09223531	      4.63179343	     25.15641990	    -49.62022813	    -79.60565153	    120.49075940	     50.96938873	     16.70431351	      4.78902329
      2.96491228	     -2.51448409	      7.38138517	     91.77000870	      0.15490993	      0.74915793	      0.76533809	     -7.15053802	      0.56607827	     -9.46109236	      9.93810252	      0.17345261	     35.62570328	      7.08771293	      0.00000000	    -10.68633655	     -0.70862607	     20.00254147	      0.98731260	      0.01723186	     28.76791707	    -15.22479368	      0.00000000	      0.05741679	      1.04958969	      0.22375417	      0.10662872	      1.39595428	      0.23773880	      0.09433004	      2.55197236	      0.23773880	      0.06562165	      2.55197236	      0.19578490	      0.05331723	      2.14032329	      0.18180026	      0.03280795	      1.62581442	      0.16781563	      0.41012239	     11.87316844	      1.24445356	      0.00000000	      0.00000000	     10.12164770	     -5.52004427	     17.41788943	     50.41275544	    -59.46239969	    -42.29415931	    121.80705517	     77.12977347	     -5.84723475	      4.06859824	     24.73899899	    -49.98642615	    -79.92437321	    120.07126247	     48.16873913	     19.15289774	      4.94025708
      2.98245614	     -2.50005111	      7.28589869	     91.68653951	      0.15537265	      0.74956410	      0.76504022	     -7.06148003	      0.60238430	     -9.49187393	      9.86836225	      0.17223541	     35.43957800	      7.08280284	      0.00000000	    -10.56290823	     -0.72213596	     19.86270846	      1.10449148	      0.01927701	     28.65457948	    -15.27116711	      0.00000000	      0.07461070	      1.02685786	      0.20900583	      0.13855953	      1.36572095	      0.22206869	      0.12257792	      2.49670219	      0.22206869	      0.08527257	      2.49670219	      0.18288010	      0.06928349	      2.09396854	      0.16981724	      0.04263255	      1.59060282	      0.15675437	      0.53293676	     11.61602143	      1.16242772	      0.00000000	      0.00000000	     10.72428198	     -5.28171437	     17.26911831	     50.11798554	    -59.91873575	    -41.66549072	    121.50444003	     77.31217690	     -5.78764832	      4.19871235	     24.82343579	    -50.42644262	    -79.93225378	    120.00820019	     48.05693618	     19.24323774	      5.01192136
